<svg width="86" height="86" viewBox="0 0 86 86" fill="none" xmlns="http://www.w3.org/2000/svg">
<rect width="86" height="86" rx="4" fill="white"/>
<path d="M6.42578 33.7256H12.042C14.6523 33.7256 16.5859 34.2002 17.8428 35.1494C19.1084 36.0986 19.7412 37.5488 19.7412 39.5C19.7412 40.6338 19.4292 41.6445 18.8052 42.5322C18.1812 43.4111 17.2979 44.1011 16.1553 44.6021C19.249 49.2251 21.1387 52.0244 21.8242 53H17.2891L12.688 45.604H10.5127V53H6.42578V33.7256ZM10.5127 37.0742V42.2817H11.8311C13.123 42.2817 14.0767 42.0664 14.6919 41.6357C15.3071 41.2051 15.6147 40.5327 15.6147 39.6187C15.6147 38.7046 15.3027 38.0542 14.6787 37.6675C14.0635 37.272 13.0879 37.0742 11.752 37.0742H10.5127ZM25.7661 50.6929C24.1841 48.979 23.3931 46.5181 23.3931 43.3101C23.3931 40.1021 24.1841 37.6543 25.7661 35.9668C27.3569 34.2705 29.6289 33.4224 32.582 33.4224C35.5439 33.4224 37.8115 34.2749 39.3848 35.98C40.958 37.6851 41.7446 40.1372 41.7446 43.3364C41.7446 46.5269 40.9536 48.979 39.3716 50.6929C37.7896 52.4067 35.522 53.2637 32.5688 53.2637C29.6157 53.2637 27.3481 52.4067 25.7661 50.6929ZM32.5952 36.8237C30.9692 36.8237 29.7432 37.373 28.917 38.4717C28.0908 39.5615 27.6777 41.1831 27.6777 43.3364C27.6777 47.6694 29.3081 49.8359 32.5688 49.8359C35.8296 49.8359 37.46 47.6694 37.46 43.3364C37.46 38.9946 35.8384 36.8237 32.5952 36.8237ZM53.5308 53.2637C50.7271 53.2637 48.5825 52.4155 47.0972 50.7192C45.6118 49.0229 44.8691 46.5796 44.8691 43.3892C44.8691 43.3452 44.8691 43.3013 44.8691 43.2573C44.8691 41.3237 45.2339 39.6099 45.9634 38.1157C46.6929 36.6128 47.7344 35.4614 49.0879 34.6616C50.4414 33.853 51.9927 33.4487 53.7417 33.4487C53.8032 33.4487 53.8604 33.4487 53.9131 33.4487C55.8027 33.4487 57.6836 33.9014 59.5557 34.8066L58.2373 38.1289C56.4531 37.2764 55.0117 36.8501 53.9131 36.8501C52.375 36.8501 51.1841 37.4302 50.3403 38.5903C49.4966 39.7417 49.0747 41.3501 49.0747 43.4155C49.0747 47.7134 50.6875 49.8623 53.9131 49.8623C55.2578 49.8623 56.897 49.5239 58.8306 48.8472V52.2749C57.2485 52.9341 55.4819 53.2637 53.5308 53.2637ZM64.4731 50.6929C62.8911 48.979 62.1001 46.5181 62.1001 43.3101C62.1001 40.1021 62.8911 37.6543 64.4731 35.9668C66.064 34.2705 68.3359 33.4224 71.2891 33.4224C74.251 33.4224 76.5186 34.2749 78.0918 35.98C79.665 37.6851 80.4517 40.1372 80.4517 43.3364C80.4517 46.5269 79.6606 48.979 78.0786 50.6929C76.4966 52.4067 74.229 53.2637 71.2759 53.2637C68.3228 53.2637 66.0552 52.4067 64.4731 50.6929ZM71.3022 36.8237C69.6763 36.8237 68.4502 37.373 67.624 38.4717C66.7979 39.5615 66.3848 41.1831 66.3848 43.3364C66.3848 47.6694 68.0151 49.8359 71.2759 49.8359C74.5366 49.8359 76.167 47.6694 76.167 43.3364C76.167 38.9946 74.5454 36.8237 71.3022 36.8237Z" fill="#662D91"/>
</svg>
