<svg width="39" height="45" viewBox="0 0 39 45" fill="none" xmlns="http://www.w3.org/2000/svg">
<path d="M11.7696 1.55566C12.2397 0.597656 13.206 0 14.2594 0H24.7406C25.794 0 26.7603 0.597656 27.2304 1.55566L27.8571 2.8125H36.2143C37.7551 2.8125 39 4.06934 39 5.625C39 7.18066 37.7551 8.4375 36.2143 8.4375H2.78571C1.24487 8.4375 0 7.18066 0 5.625C0 4.06934 1.24487 2.8125 2.78571 2.8125H11.1429L11.7696 1.55566ZM2.78571 11.25H36.2143V39.375C36.2143 42.4775 33.7159 45 30.6429 45H8.35714C5.28415 45 2.78571 42.4775 2.78571 39.375V11.25ZM11.1429 16.875C10.3768 16.875 9.75 17.5078 9.75 18.2812V37.9688C9.75 38.7422 10.3768 39.375 11.1429 39.375C11.9089 39.375 12.5357 38.7422 12.5357 37.9688V18.2812C12.5357 17.5078 11.9089 16.875 11.1429 16.875ZM19.5 16.875C18.7339 16.875 18.1071 17.5078 18.1071 18.2812V37.9688C18.1071 38.7422 18.7339 39.375 19.5 39.375C20.2661 39.375 20.8929 38.7422 20.8929 37.9688V18.2812C20.8929 17.5078 20.2661 16.875 19.5 16.875ZM27.8571 16.875C27.0911 16.875 26.4643 17.5078 26.4643 18.2812V37.9688C26.4643 38.7422 27.0911 39.375 27.8571 39.375C28.6232 39.375 29.25 38.7422 29.25 37.9688V18.2812C29.25 17.5078 28.6232 16.875 27.8571 16.875Z" fill="#F2E6FF"/>
</svg>
